#!OML:ASF F:\VICON\USERDATA\INSTALL\rory3\rory3.ASF
:FULLY-SPECIFIED
:DEGREES
663
root -0.90428 17.8896 -0.448663 2.77148 34.6469 -7.96412
lowerback 4.61489 4.1892 -5.00382
upperback 1.22926 5.30898 -5.54056
thorax -1.23393 2.6814 -3.22671
lowerneck -19.5854 -10.6033 -13.5736
upperneck 25.8574 -14.7015 13.179
head 14.2267 -6.12145 4.71556
rclavicle 1.90833e-014 1.90833e-014
rhumerus 32.5044 35.8217 -6.56048
rradius 67.2099
rwrist 53.1631
rhand -60.1572 1.24859
rfingers 7.12502
rthumb -32.3015 -25.8964
lclavicle 1.90833e-014 1.90833e-014
lhumerus -31.8436 7.67775 67.4182
lradius 51.0324
lwrist -2.21085
lhand -17.3437 28.5259
lfingers 7.12502
lthumb 8.90366 58.318
rfemur -9.59362 -12.2924 24.3114
rtibia 23.4666
rfoot -25.3168 -23.4739
rtoes 3.16748
lfemur -21.9526 -10.1365 -6.05295
ltibia 28.0624
lfoot -13.4072 -11.0383
ltoes -18.3253
664
root -0.894295 17.8892 -0.458085 2.84649 34.5005 -7.88449
lowerback 4.59407 4.21963 -5.01498
upperback 1.28126 5.35491 -5.56352
thorax -1.16633 2.70381 -3.24256
lowerneck -19.6443 -10.6621 -13.4523
upperneck 25.6841 -14.7922 13.1474
head 14.1649 -6.1535 4.65358
rclavicle 8.5875e-014 2.8625e-014
rhumerus 31.9918 36.2191 -6.95969
rradius 67.588
rwrist 53.749
rhand -60.7556 2.6775
rfingers 7.12502
rthumb -32.8709 -24.3499
lclavicle 8.5875e-014 2.8625e-014
lhumerus -31.6649 7.65587 67.5005
lradius 51.0731
lwrist -2.22531
lhand -17.751 29.8989
lfingers 7.12502
lthumb 8.51067 59.7074
rfemur -9.72958 -12.3551 24.1856
rtibia 23.6157
rfoot -25.2326 -23.3466
rtoes 2.84277
lfemur -21.9876 -10.2153 -6.15045
ltibia 28.1681
lfoot -13.4545 -10.813
ltoes -18.4459
665
root -0.881528 17.8871 -0.477135 3.06897 34.1703 -7.78648
lowerback 4.52977 4.27771 -4.94014
upperback 1.24966 5.43845 -5.59889
thorax -1.15129 2.74561 -3.32121
lowerneck -19.7885 -10.7009 -13.3133
upperneck 25.5765 -14.8193 13.0009
head 14.1238 -6.16566 4.55526
rclavicle 8.82604e-014 1.90833e-014
rhumerus 31.3201 36.3726 -7.63961
rradius 67.9527
rwrist 54.0994
rhand -60.6144 3.63113
rfingers 7.12502
rthumb -32.7366 -23.4243
lclavicle 8.82604e-014 1.90833e-014
lhumerus -31.5987 7.53345 67.6229
lradius 51.2458
lwrist -2.16316
lhand -18.123 31.4282
lfingers 7.12502
lthumb 8.15158 61.251
rfemur -10.0532 -12.4454 24.0432
rtibia 23.7284
rfoot -24.9094 -23.0802
rtoes 2.78532
lfemur -22.1491 -10.2308 -6.26892
ltibia 28.2668
lfoot -13.4641 -10.4109
ltoes -18.4711
666
root -0.877744 17.8862 -0.482263 3.06269 34.0491 -7.8445
lowerback 4.54047 4.26861 -4.94085
upperback 1.2838 5.42736 -5.52343
thorax -1.12973 2.73892 -3.24104
lowerneck -19.9302 -10.7395 -13.2408
upperneck 25.4779 -14.852 12.9346
head 14.1024 -6.17683 4.5004
rclavicle 9.54166e-015 3.18055e-015
rhumerus 30.5813 36.302 -8.47604
rradius 68.4348
rwrist 54.34
rhand -61.3476 2.48496
rfingers 7.12502
rthumb -33.4338 -24.4227
lclavicle 9.54166e-015 3.18055e-015
lhumerus -31.6505 7.29001 67.7158
lradius 51.4663
lwrist -2.02243
lhand -18.384 32.3314
lfingers 7.12502
lthumb 7.89976 62.1638
rfemur -10.1449 -12.4871 24.0904
rtibia 23.826
rfoot -24.7249 -23.0362
rtoes 2.53221
lfemur -22.1807 -10.2421 -6.22242
ltibia 28.3532
lfoot -13.5122 -10.256
ltoes -18.0878
667
root -0.880167 17.8839 -0.480339 2.749 33.8951 -7.99624
lowerback 4.7677 4.2715 -4.95499
upperback 1.3652 5.41571 -5.39163
thorax -1.18669 2.73185 -3.11147
lowerneck -19.8103 -10.7395 -13.2326
upperneck 25.1605 -14.8594 13.0239
head 13.9518 -6.18091 4.52742
rclavicle 1.7016e-013 -1.33583e-013
rhumerus 29.8782 36.0187 -9.33392
rradius 68.9256
rwrist 54.4524
rhand -60.9732 1.18623
rfingers 7.12502
rthumb -33.0779 -25.7975
lclavicle 1.7016e-013 -1.33583e-013
lhumerus -31.6715 7.34867 67.696
lradius 51.4289
lwrist -2.00161
lhand -18.2599 32.3261
lfingers 7.12502
lthumb 8.01953 62.1539
rfemur -9.91046 -12.379 24.1887
rtibia 23.8915
rfoot -24.7641 -22.9763
rtoes 2.77371
lfemur -21.9033 -10.2293 -6.11005
ltibia 28.4505
lfoot -13.6184 -10.1292
ltoes -17.9891
668
root -0.878154 17.8826 -0.485037 2.71289 33.593 -8.02647
lowerback 4.82332 4.25866 -4.97518
upperback 1.3747 5.39245 -5.29279
thorax -1.21986 2.71922 -3.00101
lowerneck -19.8116 -10.7213 -13.2966
upperneck 24.9742 -14.8108 13.0914
head 13.8781 -6.1622 4.56995
rclavicle 9.62118e-014 -5.40694e-014
rhumerus 29.3003 35.5595 -10.248
rradius 69.1696
rwrist 54.2474
rhand -61.0051 -0.657267
rfingers 7.12502
rthumb -33.1082 -27.6346
lclavicle 9.62118e-014 -5.40694e-014
lhumerus -31.712 7.54948 67.6647
lradius 51.2448
lwrist -1.99495
lhand -18.335 32.0936
lfingers 7.12502
lthumb 7.94702 61.9242
rfemur -9.94092 -12.2022 24.1796
rtibia 23.949
rfoot -24.727 -22.7882
rtoes 3.22966
lfemur -21.8171 -10.1708 -6.09308
ltibia 28.5309
lfoot -13.6489 -9.89866
ltoes -17.8543
